<svg xmlns="http://www.w3.org/2000/svg" viewBox="0 0 64 64"><path fill="#4b3029" stroke="#cda85d" stroke-width="3" d="M32 3 41 9l11 1 2 12 7 10-7 10-2 12-11 1-9 6-9-6-11-1-2-12-7-10 7-10 2-12 11-1z"/><ellipse cx="32" cy="32" rx="20" ry="24" fill="#ead2aa" stroke="#795037" stroke-width="2"/><g fill="#a85f42" stroke="#5d382b" stroke-width="2"><rect x="16" y="21" width="15" height="9" rx="1"/><rect x="33" y="21" width="15" height="9" rx="1"/><rect x="20" y="32" width="15" height="9" rx="1"/><rect x="37" y="32" width="11" height="9" rx="1"/><rect x="16" y="43" width="15" height="7" rx="1"/><rect x="33" y="43" width="15" height="7" rx="1"/></g></svg>
