<svg xmlns="http://www.w3.org/2000/svg" viewBox="0 0 64 64"><path fill="#513745" stroke="#cda85d" stroke-width="3" d="M32 3 41 9l11 1 2 12 7 10-7 10-2 12-11 1-9 6-9-6-11-1-2-12-7-10 7-10 2-12 11-1z"/><ellipse cx="32" cy="32" rx="20" ry="24" fill="#f2dfbd" stroke="#795037" stroke-width="2"/><path fill="#b55f70" stroke="#51303d" stroke-width="2" d="M32 42S18 34 20 24c1-7 9-8 12-2 3-6 11-5 12 2 2 10-12 18-12 18z"/><path d="M15 42q8-4 17 4 9-8 17-4" fill="none" stroke="#6d8a68" stroke-width="4" stroke-linecap="round"/><path d="M19 39q4 0 8 4m18-4q-4 0-8 4" fill="none" stroke="#f7e8c5" stroke-width="2"/></svg>
