<svg xmlns="http://www.w3.org/2000/svg" viewBox="0 0 64 64"><path fill="#5a2b45" stroke="#cda85d" stroke-width="3" d="M32 3 41 9l11 1 2 12 7 10-7 10-2 12-11 1-9 6-9-6-11-1-2-12-7-10 7-10 2-12 11-1z"/><ellipse cx="32" cy="32" rx="20" ry="24" fill="#f4dfbc" stroke="#795037" stroke-width="2"/><g fill="none" stroke="#4a2937" stroke-width="3"><path d="m18 20 28 25M46 20 18 45"/><circle cx="17" cy="18" r="5"/><circle cx="47" cy="18" r="5"/></g><path fill="#b65f79" stroke="#4a2937" stroke-width="2" d="M24 33q8-8 16 0v11H24z"/><path d="M27 36h10M27 40h10" stroke="#f8e6ba" stroke-width="2"/></svg>
