<svg xmlns="http://www.w3.org/2000/svg" viewBox="0 0 64 64"><path fill="#303b4c" stroke="#cda85d" stroke-width="3" d="M32 3 41 9l11 1 2 12 7 10-7 10-2 12-11 1-9 6-9-6-11-1-2-12-7-10 7-10 2-12 11-1z"/><ellipse cx="32" cy="32" rx="20" ry="24" fill="#eee0bd" stroke="#795037" stroke-width="2"/><path fill="#9c6242" stroke="#4b352b" stroke-width="2" d="M17 43V29l9 5v-7l10 6V20h7v23z"/><path fill="#d6b669" d="M22 38h5v5h-5zm9 0h5v5h-5zm8 0h5v5h-5z"/><path d="M39 17c-5-5 3-6-1-11 8 4 4 8 7 11" fill="none" stroke="#e5ddcc" stroke-width="3" stroke-linecap="round"/></svg>
