<svg xmlns="http://www.w3.org/2000/svg" viewBox="0 0 64 64"><path fill="#314432" stroke="#cda85d" stroke-width="3" d="M32 3 41 9l11 1 2 12 7 10-7 10-2 12-11 1-9 6-9-6-11-1-2-12-7-10 7-10 2-12 11-1z"/><ellipse cx="32" cy="32" rx="20" ry="24" fill="#f2dfb8" stroke="#825b37" stroke-width="2"/><g fill="#fff5d8" stroke="#5f4934" stroke-width="2"><circle cx="24" cy="28" r="8"/><circle cx="32" cy="25" r="9"/><circle cx="40" cy="29" r="8"/><circle cx="28" cy="35" r="9"/><circle cx="37" cy="36" r="9"/></g><path fill="#7b6650" stroke="#473629" stroke-width="2" d="M26 33q6-8 12 0v9H26z"/><circle cx="29" cy="35" r="1.5"/><circle cx="35" cy="35" r="1.5"/></svg>
