<svg xmlns="http://www.w3.org/2000/svg" viewBox="0 0 64 64"><path fill="#243c4b" stroke="#cda85d" stroke-width="3" d="M32 3 41 9l11 1 2 12 7 10-7 10-2 12-11 1-9 6-9-6-11-1-2-12-7-10 7-10 2-12 11-1z"/><ellipse cx="32" cy="32" rx="20" ry="24" fill="#f0dfba" stroke="#795037" stroke-width="2"/><path d="M32 15v31M24 23h16M19 38q3 11 13 11t13-11M19 38l7 3m19-3-7 3" fill="none" stroke="#344b5a" stroke-width="3" stroke-linecap="round"/><circle cx="32" cy="18" r="4" fill="#b6676b" stroke="#344b5a" stroke-width="2"/></svg>
