<svg xmlns="http://www.w3.org/2000/svg" viewBox="0 0 64 64"><defs><linearGradient id="g" x2="0" y2="1"><stop stop-color="#fff2ce"/><stop offset="1" stop-color="#d9b56e"/></linearGradient></defs><path fill="#3a2031" stroke="#cda85d" stroke-width="3" d="M32 3 41 9l11 1 2 12 7 10-7 10-2 12-11 1-9 6-9-6-11-1-2-12-7-10 7-10 2-12 11-1z"/><ellipse cx="32" cy="32" rx="19" ry="23" fill="url(#g)" stroke="#7a4c31" stroke-width="2"/><path d="m19 44 28-28M21 18l25 25" stroke="#4a2937" stroke-width="3" stroke-linecap="round"/><path fill="#a45769" stroke="#4a2937" stroke-width="2" d="M18 16c4 0 7 2 8 6-4 1-7 0-9-3zm29 29c-4 0-7-2-8-6 4-1 7 0 9 3z"/><circle cx="32" cy="32" r="4" fill="#f8e7b6" stroke="#4a2937" stroke-width="2"/></svg>
